<?xml version="1.0" standalone="no"?>
<!DOCTYPE svg PUBLIC "-//W3C//DTD SVG 1.1//EN" "http://www.w3.org/Graphics/SVG/1.1/DTD/svg11.dtd" >
<svg xmlns="http://www.w3.org/2000/svg">
<metadata></metadata>
<defs>
<font id="rudaregular" horiz-adv-x="604" >
<font-face units-per-em="2048" ascent="1638" descent="-410" />
<missing-glyph horiz-adv-x="460" />
<glyph horiz-adv-x="2048" />
<glyph horiz-adv-x="2048" />
<glyph unicode="&#xd;" horiz-adv-x="2048" />
<glyph unicode=" "  horiz-adv-x="460" />
<glyph unicode="&#x09;" horiz-adv-x="460" />
<glyph unicode="&#xa0;" horiz-adv-x="460" />
<glyph unicode="!" horiz-adv-x="548" d="M164 0v182h221v-182h-221zM180 1423h191l-31 -1034h-131z" />
<glyph unicode="&#x22;" horiz-adv-x="694" d="M115 1423v37h170v-39l-33 -442h-109zM408 1423v37h172v-39l-35 -442h-109z" />
<glyph unicode="#" horiz-adv-x="1118" d="M51 408v145h191l49 309h-170v148h192l66 413h147l-65 -413h262l65 413h150l-66 -413h170v-148h-192l-49 -309h170v-145h-193l-63 -408h-148l64 408h-262l-64 -408h-149l63 408h-168zM391 553h262l47 309h-262z" />
<glyph unicode="$" horiz-adv-x="1048" d="M74 104q4 9 10 23.5t19.5 45.5t22.5 51.5t9 19.5q8 -5 22.5 -12.5t60 -27t91.5 -34.5t111 -27t125 -12q80 0 123 27q86 60 86 209q0 55 -18 98.5t-54.5 76t-74 54t-91.5 45.5q-160 71 -213 103q-127 79 -165 195q-19 60 -19 136q0 143 85.5 244t246.5 125v198h151v-194 q67 -4 135 -14.5t103 -19.5l34 -9l-28 -148q-172 37 -342 37q-86 0 -131 -26q-31 -17 -52.5 -62.5t-21.5 -113.5q0 -36 9.5 -67t22 -53.5t39.5 -46t46 -37t58.5 -32.5t59.5 -27.5t66 -27.5q42 -17 70.5 -30.5t66.5 -35t63 -43t52.5 -53t43 -66.5t26 -82t10.5 -102 q0 -163 -91 -272t-245 -135v-222h-150v217q-57 5 -116 20t-103 32.5t-80 34.5t-55 28z" />
<glyph unicode="%" horiz-adv-x="1636" d="M109 1143q0 80 26 141t70.5 95.5t97.5 51.5t113 17t112.5 -17t97.5 -51.5t71 -95.5t26 -141q0 -81 -26 -142.5t-71 -97t-97.5 -52.5t-112.5 -17t-113 17t-97.5 52.5t-70.5 97t-26 142.5zM252 1143q0 -93 43 -132.5t121 -39.5t121 39.5t43 132.5q0 168 -164 168t-164 -168 zM385 -18l381 800l319 719h152l-363 -782l-335 -737h-154zM911 295q0 80 26 141t71 95.5t98.5 51.5t114.5 17q60 0 112.5 -17t97.5 -51.5t71 -95.5t26 -141q0 -81 -26 -142.5t-71 -97t-97.5 -52.5t-112.5 -17q-61 0 -114.5 17t-98.5 52.5t-71 97t-26 142.5zM1057 295 q0 -93 42.5 -132.5t121.5 -39.5q77 0 119 39.5t42 132.5q0 90 -42 129t-119 39q-79 0 -121.5 -38.5t-42.5 -129.5z" />
<glyph unicode="&#x26;" horiz-adv-x="1323" d="M80 383q0 75 29.5 144.5t76.5 118.5t94.5 83t94.5 53q-193 119 -193 324q0 149 98.5 246.5t272.5 97.5q92 0 163 -29t113 -77.5t63 -106.5t21 -123q0 -69 -23.5 -128.5t-62.5 -100.5t-72.5 -65.5t-70.5 -43.5q100 -71 168.5 -135t138.5 -147q37 64 69.5 132.5t45.5 105.5 l14 36l146 -47q-66 -178 -181 -356q102 -160 183 -385l-164 -7q-37 109 -121 252q-214 -252 -469 -252q-99 0 -183 36t-137.5 94.5t-83.5 131.5t-30 148zM260 369q0 -105 72.5 -176.5t187.5 -71.5q200 0 379 235q-158 215 -369 340q-114 -41 -192 -129.5t-78 -197.5z M354 1116q0 -94 48 -158.5t139 -109.5q86 36 142 104.5t56 165.5q0 84 -46.5 137.5t-147.5 53.5q-98 0 -144.5 -51.5t-46.5 -141.5z" />
<glyph unicode="'" horiz-adv-x="399" d="M115 1423v37h170v-39l-33 -442h-109z" />
<glyph unicode="(" horiz-adv-x="647" d="M141 674q0 709 365 930l78 -109q-269 -170 -269 -821q0 -649 269 -821l-78 -107q-76 46 -138 117.5t-115 180.5t-82.5 269.5t-29.5 360.5z" />
<glyph unicode=")" horiz-adv-x="647" d="M63 -147q269 172 269 821q0 651 -269 821l76 109q367 -219 367 -930q0 -200 -29.5 -360.5t-82.5 -269.5t-115.5 -180.5t-139.5 -117.5z" />
<glyph unicode="*" horiz-adv-x="847" d="M74 1130l53 170l39 -14l203 -102l-33 225v39h176v-39l-35 -225l205 102l37 14l55 -170l-39 -12l-233 -39l180 -172l29 -28l-133 -113l-23 31l-133 213l-135 -213l-23 -31l-131 113l27 28l182 172l-231 39z" />
<glyph unicode="+" horiz-adv-x="1271" d="M106 526v146h453v461h152v-461h454v-146h-454v-460h-152v460h-453z" />
<glyph unicode="," horiz-adv-x="552" d="M127 -281q66 81 66 207v246h167v-143q-3 -247 -151 -369z" />
<glyph unicode="-" horiz-adv-x="657" d="M94 598v145h469v-145h-469z" />
<glyph unicode="." horiz-adv-x="520" d="M156 0v182h209v-182h-209z" />
<glyph unicode="/" horiz-adv-x="880" d="M8 -201l348 854l297 770h183l-340 -833l-308 -791h-180z" />
<glyph unicode="0" horiz-adv-x="1171" d="M123 715q0 174 23.5 305t64 212t101 130.5t126 68.5t148.5 19t149 -19t126.5 -68.5t100.5 -131t63.5 -212t23.5 -304.5q0 -176 -23.5 -307.5t-63.5 -213.5t-100.5 -132.5t-126.5 -69.5t-149 -19t-148.5 19t-126 69.5t-101 132.5t-64 214t-23.5 307zM301 719 q0 -140 12 -242t34 -169t58 -107t79.5 -56t103.5 -16q59 0 101.5 15.5t78.5 54.5t58 105t34 168t12 243q0 144 -13 247.5t-35.5 167.5t-59.5 101.5t-78.5 51t-99.5 13.5t-100 -13.5t-78.5 -50.5t-59 -101t-35 -166.5t-12.5 -245.5z" />
<glyph unicode="1" horiz-adv-x="1038" d="M88 1061l401 377l185 -15v-1280l301 4v-147h-817v147l342 -4l14 1125h-10l-301 -318z" />
<glyph unicode="2" horiz-adv-x="1105" d="M104 1286q62 56 187 110t258 54q172 0 283.5 -96t111.5 -250q0 -119 -65 -245t-174 -269l-340 -436v-11l610 11v-154h-860v133q126 145 368 451q63 80 98 126t78 110t64.5 108.5t37 95.5t15.5 98q0 174 -188 174q-94 0 -207 -39.5t-205 -99.5z" />
<glyph unicode="3" horiz-adv-x="1030" d="M33 94l65 131q24 -11 65.5 -27.5t148.5 -43.5t190 -27q123 0 171 60t48 196q0 167 -66 235t-213 68h-190v135q222 19 285 35q94 23 124 83q23 45 23 130q0 132 -43 178q-51 56 -231 56q-70 0 -281 -25l-20 139q54 14 147 23.5t168 9.5q436 0 436 -358q0 -76 -20 -135.5 t-46.5 -92.5t-62 -55.5t-58 -30t-42.5 -10.5v-8q36 -5 69.5 -16t71.5 -37.5t66 -64.5t46.5 -101.5t18.5 -143.5q0 -89 -23 -163t-72 -134t-134 -93.5t-199 -33.5q-110 0 -220.5 30.5t-166.5 60.5z" />
<glyph unicode="4" horiz-adv-x="1099" d="M59 332v129l324 985l168 -23l-309 -938v-10l460 8l39 551h127v-551l131 4v-155h-131l2 -332h-174l6 332h-643z" />
<glyph unicode="5" horiz-adv-x="1042" d="M55 123l66 129q9 -5 24.5 -13.5t62.5 -30t92.5 -38t108 -30t115.5 -13.5q94 0 144 31q36 25 56.5 96t20.5 149q0 70 -15.5 136t-43.5 92q-61 61 -371 61l-161 -4l104 735h604v-149l-461 8l-59 -436q109 -5 189 -16.5t158.5 -39.5t127.5 -73.5t79 -120t30 -176.5 q0 -211 -114.5 -329t-313.5 -118q-71 0 -143 15.5t-123.5 37.5t-93 44t-62.5 38z" />
<glyph unicode="6" horiz-adv-x="1130" d="M123 676q0 182 28 319.5t74.5 222.5t116 138.5t144 73.5t165.5 20q76 0 147 -13t104 -27l34 -13l-39 -146q-144 43 -281 43q-135 0 -202 -67q-94 -97 -107 -389q108 14 217 14q234 0 359 -98t125 -324q0 -219 -115.5 -338t-317.5 -119q-109 0 -190.5 37t-141 118.5 t-90 218t-30.5 329.5zM303 512q0 -252 84 -336q62 -57 201 -57q141 0 195.5 68t54.5 237q0 161 -55.5 221t-217.5 60q-62 0 -127.5 -7.5t-99.5 -14.5l-35 -7v-164z" />
<glyph unicode="7" horiz-adv-x="964" d="M49 1268v155h869v-112l-582 -1325l-182 16l589 1266v12z" />
<glyph unicode="8" horiz-adv-x="1105" d="M96 389q0 126 72 224t166 137q-195 141 -195 344q0 160 107.5 258t304.5 98q201 0 307.5 -100.5t106.5 -257.5q0 -234 -215 -357q42 -25 68 -42t66.5 -52t64 -69.5t41.5 -87t18 -111.5q0 -79 -31.5 -151t-89.5 -127.5t-146.5 -88.5t-195.5 -33t-194 35.5t-141.5 95 t-84 133t-29.5 152.5zM283 373q0 -115 62.5 -183.5t205.5 -68.5q137 0 203.5 59t66.5 168q0 121 -71 188.5t-256 131.5q-73 -28 -116 -59.5t-69 -90t-26 -145.5zM311 1112q0 -107 63.5 -177t213.5 -130q100 35 151.5 103t51.5 182q0 105 -55.5 162t-182.5 57 q-132 0 -187 -51t-55 -146z" />
<glyph unicode="9" horiz-adv-x="1126" d="M123 995q0 215 113 335t315 120q84 0 151 -22t124.5 -74t96 -134t60 -207t21.5 -288q0 -752 -453 -752q-60 0 -122 13t-107.5 31.5t-83 36.5t-56.5 31l-20 13l63 129q7 -4 19.5 -11.5t51 -26t77.5 -33t93 -26t103 -11.5q94 0 142 51q47 50 78.5 166t31.5 268 q-149 -31 -274 -31q-199 0 -311.5 103.5t-112.5 318.5zM293 989q0 -53 4 -87t18 -70t40 -56.5t72 -33.5t112 -13q68 0 138.5 12.5t106.5 24.5l37 12q0 135 -9 230.5t-25.5 147.5t-33 77t-38.5 37q-59 33 -170 33q-79 0 -129 -18t-77 -60t-36.5 -96t-9.5 -140z" />
<glyph unicode=":" horiz-adv-x="643" d="M211 0v182h221v-182h-221zM211 940v182h221v-182h-221z" />
<glyph unicode=";" horiz-adv-x="638" d="M166 -281q35 43 50 88.5t15 118.5v246h168v-143q-3 -247 -151 -369zM207 940v182h221v-182h-221z" />
<glyph unicode="&#x3c;" horiz-adv-x="1294" d="M154 526v146l1034 491v-172l-860 -385v-12l860 -391v-170z" />
<glyph unicode="=" horiz-adv-x="1265" d="M106 367v147h1053v-147h-1053zM106 686v148h1053v-148h-1053z" />
<glyph unicode="&#x3e;" horiz-adv-x="1300" d="M115 33v170l858 391v12l-858 385v172l1032 -491v-146z" />
<glyph unicode="?" horiz-adv-x="946" d="M63 1321q8 5 22.5 14t60.5 31t92 39t112 31t127 14q180 0 294 -105.5t114 -269.5q0 -81 -24 -147t-62 -110.5t-84.5 -82.5t-93 -73t-84.5 -71.5t-62 -87t-24 -112.5h-144v21q0 84 22 149.5t57 108t77.5 78.5t85 68.5t78 68t58 88t22.5 119.5q0 121 -82 174 q-10 8 -41.5 17t-73.5 9q-88 0 -184.5 -27.5t-148.5 -54.5l-52 -28q0 -1 -15.5 34t-31.5 70zM270 0v182h222v-182h-222z" />
<glyph unicode="@" horiz-adv-x="1710" d="M135 676q0 151 43.5 278.5t116.5 215t169.5 149.5t202.5 90.5t216 28.5q133 0 255 -42.5t218 -121t153.5 -201t57.5 -270.5q0 -115 -35 -219.5t-91.5 -175.5t-126 -112.5t-138.5 -41.5q-84 0 -119.5 62.5t-38.5 181.5h-8q-119 -244 -260 -244q-39 0 -76.5 20t-74 66 t-59 138t-22.5 218q0 236 80 334t244 98q64 0 144.5 -13t128.5 -25l48 -13q-4 -272 -4 -448q0 -83 1 -128t5.5 -70.5t10.5 -31.5t18 -6q24 0 53 17t59 52.5t55 82.5t40.5 113t15.5 139q0 225 -141.5 357t-390.5 132q-129 0 -237 -38t-188.5 -110.5t-125.5 -187.5t-45 -260 q0 -117 30 -218t82.5 -174t123.5 -125t154 -77.5t173 -25.5q38 0 82.5 4.5t69.5 9.5l26 4l17 -137q-82 -29 -201 -29q-106 0 -207.5 29.5t-193 91.5t-160.5 149.5t-109.5 212t-40.5 271.5zM692 692q0 -274 80 -274q46 0 100 89.5t90.5 216.5t36.5 230q-73 19 -161 19 q-79 0 -103 -21q-43 -37 -43 -260z" />
<glyph unicode="A" horiz-adv-x="1054" d="M10 0l402 1423h215l401 -1423h-184l-99 381h-452l-100 -381h-183zM324 524h389l-189 760h-12z" />
<glyph unicode="B" horiz-adv-x="1257" d="M215 6l10 656l-10 763q237 25 432 25q402 0 402 -379q0 -62 -12.5 -113.5t-33 -84t-45 -57.5t-49 -38t-45 -21t-32.5 -10l-13 -2v-6q28 -1 59 -10t69 -32t67.5 -57t50 -92.5t20.5 -131.5q0 -103 -24 -182t-63.5 -127.5t-96 -79.5t-114 -42.5t-125.5 -11.5q-88 0 -200 8 t-180 17zM387 674l4 -545q160 -23 293 -23q127 0 172 69t45 231q0 147 -66.5 207.5t-195.5 60.5h-252zM387 809q139 -2 268 -2q123 0 169 58t46 200q0 143 -52.5 200.5t-176.5 57.5q-59 0 -122.5 -4t-97.5 -8l-34 -4v-498z" />
<glyph unicode="C" horiz-adv-x="1193" d="M147 696q0 182 26.5 317t71.5 218t114 133t143.5 68t171.5 18q72 0 182.5 -10.5t161.5 -22.5l-21 -147q-44 6 -155 15t-154 9q-108 0 -166 -11.5t-84 -43.5q-104 -129 -104 -549q0 -201 38.5 -337t86.5 -183q51 -51 162 -51q57 0 119 11.5t109.5 28.5t87 34t60.5 29 l21 11l59 -135q-7 -5 -20.5 -13.5t-58 -30t-92.5 -38t-121 -30t-146 -13.5q-112 0 -200 39.5t-154.5 124t-102 225.5t-35.5 334z" />
<glyph unicode="D" horiz-adv-x="1292" d="M215 0v1425q270 25 426 25q88 0 160 -20.5t123.5 -55.5t91 -88t63.5 -113t39.5 -135t21 -148.5t5.5 -160.5q0 -206 -39.5 -355.5t-112 -235.5t-165.5 -125.5t-210 -39.5q-43 0 -143.5 6.5t-180.5 13.5zM385 1286l2 -1141q131 -20 209 -20q187 0 244 57q112 112 112 561 q0 194 -26.5 332t-81.5 185q-46 40 -199 40q-40 0 -105 -3.5t-110 -6.5z" />
<glyph unicode="E" horiz-adv-x="1052" d="M215 0v1423h698v-153l-526 6l-10 -479h487v-146h-487l10 -501l526 4v-154h-698z" />
<glyph unicode="F" horiz-adv-x="1024" d="M215 0v1423h698v-155l-528 6l-8 -479l473 2v-146h-473l10 -651h-172z" />
<glyph unicode="G" horiz-adv-x="1253" d="M147 717q0 179 27 309.5t72.5 211.5t118.5 129t153 65.5t187 17.5q91 0 193.5 -11t156.5 -24l-21 -147q-5 1 -49.5 6.5t-77 9t-93.5 7t-122 3.5q-106 0 -166 -12t-90 -43q-43 -45 -73 -173.5t-31 -344.5q1 -126 12 -226.5t29 -160.5t34 -94t33 -52q58 -65 246 -65 q136 0 213 31v450l-217 10v127h381v-688q-6 -3 -18 -8.5t-51.5 -19.5t-81.5 -24.5t-106 -19t-128 -8.5q-93 0 -166.5 17.5t-144 67t-117 130.5t-75 215t-28.5 314z" />
<glyph unicode="H" horiz-adv-x="1361" d="M215 0v1423h172l-6 -622h600l-4 622h170v-1423h-170l6 649h-602l6 -649h-172z" />
<glyph unicode="I" d="M215 -2l8 653l-8 772h174l-10 -628l10 -795z" />
<glyph unicode="J" horiz-adv-x="647" d="M-14 -12l18 147q96 -12 143 -12q36 0 57 9.5t40 42.5t27 101.5t8 180.5v966h172v-940q0 -510 -336 -510q-18 0 -50.5 3.5t-55.5 7.5z" />
<glyph unicode="K" horiz-adv-x="1183" d="M215 0l10 723l-10 700h174v-1423h-174zM391 721l541 702h201l-553 -692v-12l606 -719h-219z" />
<glyph unicode="L" horiz-adv-x="913" d="M215 0v1423h172l-10 -1269l514 4v-158h-676z" />
<glyph unicode="M" horiz-adv-x="1626" d="M207 0l43 1423h254l303 -919h10l301 919h254l47 -1423h-172l-12 1290h-10l-314 -919h-194l-318 919h-12l-8 -1290h-172z" />
<glyph unicode="N" horiz-adv-x="1386" d="M215 0v1423h240l569 -1261h10l-30 1261h167v-1423h-239l-567 1262h-9l27 -1262h-168z" />
<glyph unicode="O" horiz-adv-x="1343" d="M147 715q0 146 18.5 261.5t54 194.5t82 134.5t107.5 86.5t124 44.5t139 13.5t139 -13.5t124 -44.5t107 -86.5t81.5 -135t54 -194.5t18.5 -261q0 -175 -27.5 -307t-73.5 -214t-115 -132.5t-142.5 -69.5t-165.5 -19t-165.5 19t-142.5 69.5t-115.5 132.5t-74 214t-27.5 307z M332 709q0 -109 7 -192.5t19 -145t34 -104t47 -69.5t63 -41.5t76.5 -20t93.5 -5.5t94 5.5t77 20t63 41.5t47 69.5t34.5 104t19.5 145t7 192.5q0 153 -13 257t-37 169t-68 100t-95 47t-129 12t-129 -12t-94.5 -47t-67 -100t-36.5 -169t-13 -257z" />
<glyph unicode="P" horiz-adv-x="1189" d="M215 0l8 659l-8 762q252 29 471 29q185 0 284 -121t99 -356q0 -116 -24.5 -205.5t-64 -144t-96 -89.5t-115 -48t-126.5 -13q-45 0 -109 3t-106 6l-41 3v-485h-172zM387 643q145 -25 268 -25q70 0 109.5 8t62.5 31q60 63 60 336q0 248 -70 293q-50 33 -172 33 q-145 0 -258 -23v-653z" />
<glyph unicode="Q" horiz-adv-x="1357" d="M147 715q0 146 18.5 261.5t54 194.5t82 134.5t107.5 86.5t124 44.5t139 13.5t139 -13.5t124 -44.5t107 -86.5t81.5 -135t54 -194.5t18.5 -261q0 -472 -209 -639v-13l281 -92l-68 -159l-350 184q-79 -23 -178 -23q-92 0 -165.5 19t-142.5 69.5t-115.5 132.5t-74 214 t-27.5 307zM332 709q0 -109 7 -192.5t19 -145t34 -104t47 -69.5t63 -41.5t76.5 -20t93.5 -5.5t94 5.5t77 20t63 41.5t47 69.5t34.5 104t19.5 145t7 192.5q0 153 -13 257t-37 169t-68 100t-95 47t-129 12t-129 -12t-94.5 -47t-67 -100t-36.5 -169t-13 -257z" />
<glyph unicode="R" horiz-adv-x="1300" d="M215 0l10 674l-6 749q59 8 203 17.5t250 9.5q220 0 337 -104t117 -338q0 -350 -303 -422v-8l322 -578h-205l-293 565l-258 10v-575h-174zM387 729q192 -20 305 -20q146 0 199 69t53 232q0 233 -80 280q-50 29 -168 29q-130 0 -305 -23z" />
<glyph unicode="S" horiz-adv-x="1046" d="M74 104q4 9 10 23.5t19.5 45.5t22.5 51.5t9 19.5q8 -5 22.5 -12.5t60 -27t91.5 -34.5t111 -27t125 -12q80 0 123 27q86 60 86 209q0 55 -18.5 99t-54 76t-73.5 54.5t-92 44.5q-164 69 -224 108q-128 82 -160 212q-13 51 -13 114q0 164 109.5 269.5t312.5 105.5 q79 0 162.5 -11t126.5 -23l44 -11l-28 -148q-172 37 -342 37q-86 0 -131 -26q-31 -17 -52.5 -62.5t-21.5 -113.5q0 -36 9.5 -67t22 -53.5t39.5 -46t46 -37t58.5 -32.5t59.5 -27.5t66 -27.5q42 -17 70.5 -30.5t66.5 -35t63 -43t52.5 -53t43 -66.5t26 -82t10.5 -102 q0 -187 -118.5 -301.5t-309.5 -114.5q-63 0 -130.5 13.5t-118.5 32.5t-93.5 38.5t-65.5 32.5z" />
<glyph unicode="T" horiz-adv-x="970" d="M4 1268v155h963v-155l-400 6l4 -1274h-170l5 1274z" />
<glyph unicode="U" horiz-adv-x="1353" d="M215 618v805h172v-749q0 -127 4.5 -210t18 -147t31.5 -98.5t53.5 -56t76 -27.5t105.5 -6q65 1 106 7t76.5 28t54 56t32 98t18 147t4.5 209v749h172v-786q0 -155 -20 -269.5t-57 -190t-95 -121t-128 -64.5t-163 -19q-116 0 -197.5 30.5t-143 102.5t-91 199t-29.5 313z" />
<glyph unicode="V" horiz-adv-x="1081" d="M39 1423h182l307 -1286h13l305 1286h184l-385 -1423h-223z" />
<glyph unicode="W" horiz-adv-x="1531" d="M68 1423h176l149 -1271h10l236 927h233l236 -927h12l148 1271h176l-209 -1423h-234l-239 932h-10l-236 -932h-246z" />
<glyph unicode="X" horiz-adv-x="1097" d="M20 0l410 705l-399 718h200l295 -604h13l303 604h198l-397 -725l410 -698h-199l-309 582h-10l-316 -582h-199z" />
<glyph unicode="Y" horiz-adv-x="1046" d="M10 1423h193l305 -749h8l307 749h193l-420 -895l4 -528h-176l4 530z" />
<glyph unicode="Z" horiz-adv-x="1087" d="M59 0v156l742 1108v12l-701 -8v155h893v-159l-733 -1104v-10l741 6v-156h-942z" />
<glyph unicode="[" horiz-adv-x="636" d="M217 -254v1858h336v-140l-182 6v-1591l182 6v-139h-336z" />
<glyph unicode="\" horiz-adv-x="884" d="M45 1423h182l297 -770l348 -854h-180l-307 791z" />
<glyph unicode="]" horiz-adv-x="636" d="M84 -115l184 -6v1591l-184 -6v140h336v-1858h-336v139z" />
<glyph unicode="^" horiz-adv-x="1036" d="M119 666l299 757h200l300 -757l-152 -19l-240 643h-14l-240 -643z" />
<glyph unicode="_" horiz-adv-x="1097" d="M33 -186h1032v-144h-1032v144z" />
<glyph unicode="`" horiz-adv-x="1222" d="M348 1505l62 137l454 -194l-41 -102z" />
<glyph unicode="a" horiz-adv-x="1163" d="M111 352q0 107 33 182t96.5 118t147 62t194.5 19h217q0 124 -7.5 192.5t-31.5 100.5q-33 45 -131 45q-94 0 -202 -25.5t-169 -51.5l-61 -25l-60 133q9 5 26 13t69 28t103.5 35.5t123 28t135.5 12.5q375 0 375 -435v-784h-111l-24 125h-13q-8 -6 -21.5 -16.5t-57 -36.5 t-87 -46t-105.5 -36.5t-118 -16.5q-146 0 -233.5 99.5t-87.5 279.5zM289 352q0 -120 40 -173.5t132 -53.5q69 0 153.5 27.5t134.5 55.5l50 28v339q-88 15 -219 15q-191 0 -236 -39q-55 -43 -55 -199z" />
<glyph unicode="b" horiz-adv-x="1179" d="M184 51v1491h170v-368q191 45 310 45q184 0 278 -146.5t94 -456.5q0 -643 -411 -643q-85 0 -218.5 23.5t-222.5 54.5zM354 158q130 -35 271 -35q101 0 139 33q94 89 94 493q0 333 -65 385q-45 33 -146 33q-62 0 -135 -13.5t-116 -26.5l-42 -13v-856z" />
<glyph unicode="c" horiz-adv-x="1060" d="M143 600q0 142 26.5 251t71.5 178t111.5 112t140.5 60.5t164 17.5q151 0 291 -33l-20 -144q-7 1 -49 6.5t-74.5 9.5t-83.5 7.5t-96 3.5q-156 0 -209 -53q-41 -44 -67.5 -160t-26.5 -268q0 -195 40 -297t91 -137q47 -33 122 -33q71 0 158.5 23.5t138.5 47.5l52 23l53 -133 q-6 -4 -17 -11.5t-48 -26.5t-76.5 -33t-100 -26t-121.5 -12q-221 0 -346 152.5t-125 474.5z" />
<glyph unicode="d" horiz-adv-x="1189" d="M143 573q0 646 424 646q59 0 126.5 -10.5t104.5 -21.5l38 -11v366h170v-1542h-113l-23 123h-12q-6 -6 -17.5 -16t-48 -36t-74 -46t-92 -36t-106.5 -16q-174 0 -275.5 150t-101.5 450zM322 565q0 -345 92 -413q28 -25 116 -25q64 0 140.5 26.5t121.5 52.5l44 27v779 q-15 6 -41 15t-101 24.5t-143 15.5q-115 0 -156 -49q-73 -94 -73 -453z" />
<glyph unicode="e" horiz-adv-x="1165" d="M143 598q0 621 471 621q103 0 178 -29.5t130 -95t82.5 -174.5t27.5 -263v-127h-708q0 -276 88 -358q55 -49 170 -49q77 0 170.5 19.5t148.5 39.5l55 19l43 -140q-19 -10 -53.5 -24.5t-134.5 -39t-193 -24.5q-475 0 -475 625zM324 666l534 10q0 129 -10 209.5t-37 124.5 q-19 29 -56.5 45t-127.5 16q-176 0 -238 -82q-65 -85 -65 -323z" />
<glyph unicode="f" horiz-adv-x="692" d="M102 991v105l134 26q4 126 30.5 214.5t74 138.5t107.5 72t140 22l114 -4l-12 -144q-104 4 -143 4q-42 0 -65 -8.5t-42.5 -39t-26.5 -91.5t-7 -164h260v-137h-260v-985h-170v991h-134z" />
<glyph unicode="g" horiz-adv-x="1067" d="M96 782q0 121 37.5 208.5t104.5 136t148 70.5t181 22q62 0 170 -6.5t185 -12.5l77 -6v-109l-135 -20q8 -17 19.5 -46t31 -102.5t19.5 -128.5q0 -180 -115.5 -291.5t-316.5 -111.5q-21 -121 -21 -129q0 -7 65 -33q66 -28 120 -51q165 -70 230 -137.5t65 -140.5 q0 -122 -121.5 -191.5t-321.5 -69.5q-97 0 -195.5 14t-148.5 28l-49 14l20 153q291 -51 469 -51q111 0 152 18t41 58q0 46 -47 78.5t-213 103.5q-63 26 -145 60q-73 31 -88 38.5t-15 14.5l96 235q-139 33 -219 137.5t-80 247.5zM262 793q0 -146 57 -201t195 -55 q140 0 198 54.5t58 201.5q0 71 -7 132t-16.5 92.5t-17.5 35.5q-5 5 -53.5 8.5t-94.5 4.5l-46 1q-76 0 -124.5 -11.5t-83.5 -42t-50 -83.5t-15 -137z" />
<glyph unicode="h" horiz-adv-x="1196" d="M174 0v1542h170v-424q234 101 361 101q174 0 242.5 -104t68.5 -322v-793h-170v733q0 122 -8.5 185.5t-32.5 97.5q-19 26 -47 34.5t-76 8.5q-67 0 -151.5 -21.5t-135.5 -43.5l-51 -21v-973h-170z" />
<glyph unicode="i" d="M199 1368v174h209v-174h-209zM217 0v1192h170v-1192h-170z" />
<glyph unicode="j" horiz-adv-x="628" d="M-35 -354l19 151q57 -8 125 -8q30 0 47 2.5t34 13.5t25.5 30.5t15.5 56.5t9 87.5t2 126.5v1086h170v-1079q0 -131 -25 -226t-70.5 -148.5t-102 -78.5t-126.5 -25q-24 0 -54.5 2.5t-49.5 5.5zM223 1368v174h209v-174h-209z" />
<glyph unicode="k" horiz-adv-x="1069" d="M184 0l11 657l-11 885h170v-1542h-170zM356 643l475 549h220l-506 -539v-10l542 -643h-221z" />
<glyph unicode="l" horiz-adv-x="538" d="M184 0v1542h170v-1542h-170z" />
<glyph unicode="m" horiz-adv-x="1878" d="M207 0v1192h115l18 -117h10q237 144 406 144q87 0 151 -41t92 -113q57 35 94 55t94.5 46.5t114 39.5t113.5 13q65 0 114 -20t81 -56t52 -91.5t28 -120t8 -147.5v-784h-170v727q0 83 -1 124t-8 89t-22 70q-30 47 -115 47q-140 0 -352 -117q8 -90 8 -147v-793h-170v733 q0 133 -5.5 189.5t-26.5 89.5q-31 45 -111 45q-48 0 -107.5 -15t-95.5 -28.5t-89.5 -38t-55.5 -25.5v-950h-170z" />
<glyph unicode="n" horiz-adv-x="1230" d="M207 0v1192h115l18 -117h10q243 144 426 144q82 0 137.5 -31.5t84.5 -92t41 -132.5t12 -170v-793h-172v733q0 135 -5.5 193t-25.5 88q-28 43 -111 43q-148 0 -360 -109v-948h-170z" />
<glyph unicode="o" horiz-adv-x="1179" d="M143 596q0 149 22.5 259.5t73 194.5t138.5 126.5t213 42.5q124 0 211.5 -42.5t138.5 -126t73.5 -194.5t22.5 -260q0 -150 -22.5 -261t-73.5 -194t-138.5 -125.5t-211.5 -42.5q-125 0 -213 42.5t-138.5 126t-73 194t-22.5 260.5zM315 596q0 -154 13 -246t47.5 -144.5 t83 -69.5t131.5 -17t131 17t82 69.5t46.5 144.5t12.5 246q0 103 -5.5 176.5t-19.5 127t-33 86t-51.5 52t-70 26.5t-92.5 7q-66 0 -108.5 -11t-77 -39t-52.5 -82.5t-27.5 -137t-9.5 -205.5z" />
<glyph unicode="p" horiz-adv-x="1181" d="M174 -340v1532h115l22 -121h11q5 3 45 31t78.5 51.5t103.5 44.5t129 21q172 0 266 -147.5t94 -453.5q0 -645 -432 -645q-46 0 -111.5 7.5t-108.5 14.5l-42 7v-342h-170zM344 166q174 -43 301 -43q78 0 117 33q47 39 71.5 149.5t24.5 345.5q0 186 -15 268t-44 111 q-35 35 -115 35q-45 0 -96.5 -11.5t-93 -27.5t-76.5 -32.5t-54 -27.5l-20 -12v-788z" />
<glyph unicode="q" horiz-adv-x="1181" d="M143 618q0 169 27 285.5t83.5 186t134 99.5t187.5 30q87 0 192.5 -17.5t167.5 -35.5l62 -17v-1489h-170v381q-17 -8 -46 -19t-107 -30t-142 -19q-62 0 -115.5 17t-105.5 61.5t-88 115t-58 186t-22 265.5zM322 618q0 -372 81 -456q21 -21 45 -29t68 -8q68 0 146 16.5 t122 32.5l43 16v846q-118 33 -280 33q-68 0 -102 -9t-56 -34q-67 -77 -67 -408z" />
<glyph unicode="r" horiz-adv-x="808" d="M207 0v1192h108l23 -121h12q8 6 22 16t55 35.5t80 45t88.5 35.5t88.5 16q18 0 39 -2.5t33 -5.5l12 -3l-14 -164q-47 5 -76 5q-79 0 -165.5 -33t-135.5 -72v-944h-170z" />
<glyph unicode="s" horiz-adv-x="1007" d="M113 72l43 145q8 -4 21.5 -10.5t56 -23t84.5 -29t101.5 -23t112.5 -10.5q94 0 132 33q59 51 59 159q0 59 -19 100.5t-69 69.5t-80.5 39.5t-106.5 32.5q-8 3 -12 4q-133 38 -188 71q-127 76 -133 247v18q0 324 389 324q93 0 183.5 -16.5t143.5 -33.5l-26 -143 q-162 45 -334 45q-114 0 -154 -29q-43 -31 -43 -120q0 -31 8.5 -58t19.5 -46t34 -36t40 -27.5t51 -23t53.5 -18t60.5 -17t59 -16.5q50 -15 87 -30t77.5 -41.5t66 -60t42 -85.5t16.5 -117q0 -170 -101 -271.5t-286 -101.5q-57 0 -118 10t-107.5 24.5t-84.5 29.5t-58 25z" />
<glyph unicode="t" horiz-adv-x="745" d="M92 989v107l141 28l46 279h118v-281h238v-137h-238v-618v-76t2.5 -57t4.5 -44t9.5 -28.5t15 -20.5t22.5 -9.5t30 -5.5t41 -1l111 4v-137q-43 -10 -115 -10q-57 0 -98.5 9t-79.5 34t-61.5 68.5t-37.5 115t-14 170.5v610h-135z" />
<glyph unicode="u" horiz-adv-x="1228" d="M180 399v793h170v-733q0 -236 29 -285q25 -43 119 -43q57 0 128 20t109.5 36.5t116.5 52.5v952h170v-1192h-115l-20 115h-10q-2 -1 -63 -34t-100 -51t-107.5 -37.5t-127.5 -19.5q-65 0 -117 22t-94 69.5t-65 132.5t-23 202z" />
<glyph unicode="v" horiz-adv-x="970" d="M29 1192h184l262 -1053h12l269 1053h184l-354 -1192h-211z" />
<glyph unicode="w" horiz-adv-x="1488" d="M43 1192h172l186 -1094h11l202 936h252l201 -936h12l185 1094h174l-240 -1192h-252l-201 938h-12l-201 -938h-249z" />
<glyph unicode="x" horiz-adv-x="1005" d="M35 0l356 621l-352 571h192l261 -477h12l252 477h192l-352 -576l358 -616h-198l-260 514h-11l-254 -514h-196z" />
<glyph unicode="y" horiz-adv-x="980" d="M6 1192h201l280 -875h11l278 875h185l-414 -1116l-111 -416h-180l162 457z" />
<glyph unicode="z" horiz-adv-x="964" d="M70 0v137l612 912v12l-586 -10v141h783v-137l-611 -912v-12l623 10v-141h-821z" />
<glyph unicode="{" horiz-adv-x="854" d="M115 618v152q79 12 121 24t73 38.5t41 67t10 110.5v202q0 394 316 394l108 -7l-8 -133q-82 7 -123 7q-47 0 -71 -17t-38 -75.5t-14 -172.5v-200q0 -74 -17 -132.5t-40 -90t-52.5 -52.5t-48 -27t-32.5 -8h-2v-12q15 -2 32.5 -7.5t48 -26t53.5 -51.5t40.5 -91t17.5 -137 v-215q0 -119 15.5 -181t40.5 -80t71 -18l119 6l8 -135q-65 -4 -102 -4q-322 0 -322 412v223q0 47 -4 78.5t-16 56.5t-27.5 40t-46 27t-63.5 19t-88 16z" />
<glyph unicode="|" horiz-adv-x="573" d="M211 -166v1708h151v-1708h-151z" />
<glyph unicode="}" horiz-adv-x="854" d="M70 -250l8 135q82 -6 119 -6q46 0 71 18t40.5 80t15.5 181v215q0 77 17.5 137t40.5 91t53.5 51.5t48 26t32.5 7.5v12h-2q-14 2 -32.5 8t-48 27t-52.5 52.5t-40 90t-17 132.5v198q0 114 -14 173t-38 76.5t-71 17.5l-123 -7l-8 133q63 7 108 7q149 0 232.5 -95t83.5 -301 v-200q0 -70 10 -110.5t41 -67t73 -38.5t121 -24v-152q-55 -9 -88 -16t-63.5 -19t-46 -27t-27.5 -40t-16 -56.5t-4 -78.5v-223q0 -412 -322 -412z" />
<glyph unicode="~" horiz-adv-x="1073" d="M55 592q144 151 242 151q49 0 121.5 -23.5t134.5 -51t130 -51t108 -23.5q62 0 159 59l54 -84q-36 -48 -95 -88.5t-131 -40.5q-39 0 -136.5 38t-200.5 76t-156 38q-61 0 -168 -86z" />
<glyph unicode="&#xa1;" horiz-adv-x="548" d="M164 1010v182h221v-182h-221zM182 -229l29 1034h133l29 -1034h-191z" />
<glyph unicode="&#xa2;" horiz-adv-x="1060" d="M143 600q0 124 20 223t55.5 166.5t87.5 114.5t111.5 72.5t133.5 35.5v209h149v-202q133 -6 248 -33l-20 -144q-7 1 -49 6.5t-74.5 9.5t-83.5 7.5t-96 3.5q-156 0 -209 -53q-41 -44 -67.5 -160t-26.5 -268q0 -195 40 -297t91 -137q47 -33 122 -33q71 0 158.5 23.5 t138.5 47.5l52 23l53 -133q-12 -9 -35 -23.5t-95 -42t-147 -36.5v-222h-149v219q-193 20 -300.5 172.5t-107.5 450.5z" />
<glyph unicode="&#xa3;" horiz-adv-x="1140" d="M147 0v152h181v557h-181v133h181q2 140 26.5 247t64.5 174.5t98.5 110t123 59.5t143.5 17q128 0 246 -33l-18 -143q-172 26 -250 26q-136 0 -180 -53q-35 -42 -57 -148.5t-25 -256.5h368v-133h-368v-555l499 4v-158h-852z" />
<glyph unicode="&#xa4;" horiz-adv-x="1329" d="M154 322l116 116q-82 122 -82 281q0 156 86 282l-114 117l112 115l119 -119q134 86 283 86q147 0 274 -82l119 117l115 -113l-117 -114q92 -125 92 -289q0 -161 -86 -287l117 -117l-115 -110l-117 112q-134 -86 -282 -86q-154 0 -293 93l-117 -117zM352 717 q0 -172 86.5 -253t235.5 -81q168 0 243.5 77.5t75.5 256.5q0 171 -85 251.5t-234 80.5t-235.5 -80.5t-86.5 -251.5z" />
<glyph unicode="&#xa5;" horiz-adv-x="1114" d="M51 1423h193l305 -735h12l303 735h193l-352 -737l307 2v-135h-916v135l305 -2zM96 299v135h916v-135h-375v-299h-170v299h-371z" />
<glyph unicode="&#xa6;" horiz-adv-x="573" d="M211 -166v717h151v-717h-151zM211 825v717h151v-717h-151z" />
<glyph unicode="&#xa7;" horiz-adv-x="1067" d="M121 672q0 144 127 243q-86 80 -86 213q0 150 86.5 236t267.5 86q167 0 318 -47l-27 -143q-148 45 -320 45q-91 0 -125 -31q-40 -31 -40 -123q0 -58 35.5 -99.5t92 -66t124.5 -45.5t136.5 -45t125 -56t92 -88.5t35.5 -132.5q0 -140 -140 -270q76 -76 76 -196 q0 -156 -102 -249t-267 -93q-103 0 -204.5 24.5t-151.5 49.5l-51 24l43 145q22 -11 58.5 -27t134.5 -42.5t176 -26.5q103 0 145 31q59 41 59 155q0 50 -26.5 86t-70 56.5t-99 39.5t-113.5 33.5t-113.5 40t-99 57t-70 87.5t-26.5 129zM281 668q0 -46 25 -79t72 -54.5 t95.5 -36t116 -34t112.5 -38.5q105 105 105 176q0 41 -26.5 71.5t-75.5 51t-101 35.5t-121.5 36.5t-117.5 43.5q-84 -73 -84 -172z" />
<glyph unicode="&#xa8;" horiz-adv-x="1136" d="M276 1401v168h203v-168h-203zM659 1401v168h201v-168h-201z" />
<glyph unicode="&#xa9;" horiz-adv-x="1712" d="M147 659q0 153 55 286.5t150 227.5t225.5 147.5t276.5 53.5q205 0 367.5 -91.5t253 -254.5t90.5 -369q0 -154 -53 -286.5t-146 -226.5t-225.5 -147.5t-286.5 -53.5q-205 0 -366.5 91.5t-251 254t-89.5 368.5zM295 659q0 -265 148 -418t411 -153t413 153t150 418 t-150 418.5t-413 153.5q-252 0 -405.5 -155t-153.5 -417zM508 647q0 92 12.5 164t36.5 120.5t54.5 82.5t71 52.5t82 26t91.5 7.5q45 0 110 -7.5t93 -17.5l-10 -133q-116 16 -189 16q-110 0 -133 -30q-57 -64 -57 -283q0 -106 18.5 -171.5t44.5 -88.5q27 -27 88 -27 q53 0 113 14t94 28l33 14l37 -125q-4 -3 -12.5 -8t-35.5 -18.5t-56 -23.5t-73.5 -18t-89.5 -8q-69 0 -126 24t-102 74t-70 135.5t-25 200.5z" />
<glyph unicode="&#xaa;" horiz-adv-x="868" d="M102 864q0 133 88 193.5t236 60.5h143q0 121 -23.5 157t-111.5 36q-57 0 -126 -18t-110 -36l-40 -18l-37 119q20 9 52.5 22.5t114 35.5t140.5 22q154 0 217.5 -73.5t63.5 -223.5v-531h-95l-20 78h-8q-15 -11 -41 -27t-94.5 -42.5t-124.5 -26.5q-105 0 -164.5 67.5 t-59.5 204.5zM248 852q0 -71 27 -101t87 -30q38 0 90 17.5t84 35.5l33 17v198q-55 6 -145 6q-109 0 -135 -26q-41 -33 -41 -117z" />
<glyph unicode="&#xab;" horiz-adv-x="942" d="M82 676l289 495l127 -77l-250 -410v-14l250 -410l-127 -80zM449 676l288 495l125 -77l-248 -410v-14l248 -410l-125 -80z" />
<glyph unicode="&#xac;" horiz-adv-x="1202" d="M57 526v150h1055v-436h-149v286h-906z" />
<glyph unicode="&#xad;" horiz-adv-x="796" d="M164 528v146h469v-146h-469z" />
<glyph unicode="&#xae;" horiz-adv-x="1712" d="M147 659q0 153 55 286.5t150 227.5t225.5 147.5t276.5 53.5q205 0 367.5 -91.5t253 -254.5t90.5 -369q0 -154 -53 -286.5t-146 -226.5t-225.5 -147.5t-286.5 -53.5q-205 0 -366.5 91.5t-251 254t-89.5 368.5zM295 659q0 -265 148 -418t411 -153t413 153t150 418 t-150 418.5t-413 153.5q-252 0 -405.5 -155t-153.5 -417zM575 242l7 395l-4 436q166 17 294 17q137 0 210 -63t73 -204q0 -110 -48 -176.5t-114 -81.5v-6l164 -317h-166l-145 305l-123 2v-307h-148zM721 686q65 -8 162 -8q65 0 91.5 33.5t26.5 109.5q0 79 -26 109.5 t-101 30.5q-30 0 -67.5 -2.5t-59.5 -5.5l-22 -3z" />
<glyph unicode="&#xaf;" horiz-adv-x="1155" d="M297 1419v123h573v-123h-573z" />
<glyph unicode="&#xb0;" horiz-adv-x="710" d="M47 1143q0 80 26 141t71 95.5t98.5 51.5t113.5 17t113 -17t97.5 -51.5t71 -95.5t26.5 -141q0 -81 -26.5 -142.5t-71 -97t-97.5 -52.5t-113 -17t-113.5 17t-98.5 52.5t-71 97t-26 142.5zM193 1143q0 -93 42 -132.5t121 -39.5q78 0 120 39.5t42 132.5q0 90 -42.5 129 t-119.5 39q-79 0 -121 -38.5t-42 -129.5z" />
<glyph unicode="&#xb1;" horiz-adv-x="1144" d="M106 35v147h932v-147h-932zM106 670v143h390v350h151v-350h391v-143h-391v-353h-151v353h-390z" />
<glyph unicode="&#xb2;" horiz-adv-x="757" d="M102 1348q36 30 113 61t150 31q110 0 177.5 -55t67.5 -150q0 -110 -131 -283q-25 -34 -71 -89t-80 -93l-33 -39v-8l330 8v-121h-512v105q128 139 204 233q55 69 81 103.5t53.5 88.5t27.5 93q0 84 -86 84q-111 0 -237 -76z" />
<glyph unicode="&#xb3;" horiz-adv-x="727" d="M86 664l39 106q13 -6 35 -15.5t80.5 -25.5t105.5 -16q67 0 94 31t27 102q0 76 -37.5 107.5t-114.5 31.5h-102v111q141 11 175 23q46 17 54 64q2 14 2 31q0 56 -24 80q-34 27 -123 27q-58 0 -156 -12l-10 112q102 19 188 19q123 0 192 -47.5t69 -161.5q0 -52 -16.5 -89.5 t-41.5 -54.5t-43 -24t-33 -8v-8q20 -3 39.5 -9.5t41.5 -21.5t38.5 -37t27.5 -58t11 -81q0 -112 -61 -179t-197 -67q-64 0 -129 17.5t-98 34.5z" />
<glyph unicode="&#xb4;" horiz-adv-x="1224" d="M358 1448l455 194l64 -137l-478 -159z" />
<glyph unicode="&#xb6;" horiz-adv-x="1347" d="M100 911q0 145 30 245.5t89.5 158.5t138 83t185.5 25h604v-1738h-172v1587h-260v-1587h-172v712q-106 0 -184.5 25.5t-138 83.5t-90 159.5t-30.5 245.5z" />
<glyph unicode="&#xb7;" horiz-adv-x="614" d="M199 678q0 61 33.5 88t82.5 27q48 0 81.5 -27t33.5 -88q0 -60 -34 -88.5t-81 -28.5q-48 0 -82 28.5t-34 88.5z" />
<glyph unicode="&#xb8;" horiz-adv-x="1040" d="M408 -221q90 -10 131 -10q65 0 87.5 11.5t22.5 51.5q0 71 -28 180l120 8q39 -103 39 -182q0 -94 -62.5 -149.5t-160.5 -55.5q-33 0 -70 4.5t-58 9.5l-21 5v127z" />
<glyph unicode="&#xb9;" horiz-adv-x="759" d="M80 1247l250 191l147 -11v-698h180v-119h-526v119h207v574h-8l-176 -150z" />
<glyph unicode="&#xba;" horiz-adv-x="731" d="M47 1014q0 208 73 316t245 108q90 0 152.5 -28.5t98.5 -85.5t52 -132.5t16 -177.5q0 -208 -72.5 -315t-246.5 -107q-172 0 -245 107.5t-73 314.5zM190 1014q0 -123 18 -187.5t54 -87t103 -22.5q68 0 104.5 22.5t55 87t18.5 187.5q0 125 -18.5 190t-54.5 87t-105 22 q-68 0 -103 -22t-53.5 -87t-18.5 -190z" />
<glyph unicode="&#xbb;" horiz-adv-x="942" d="M80 260l250 410v14l-250 410l127 77l289 -495l-289 -496zM446 260l248 410v14l-248 410l125 77l289 -495l-289 -496z" />
<glyph unicode="&#xbc;" horiz-adv-x="1804" d="M80 1247l250 191l147 -11v-698h180v-119h-526v119h207v574h-8l-176 -150zM508 -18l381 800l319 719h152l-363 -782l-335 -737h-154zM1118 168v106l195 557l125 -14l-193 -530v-8l238 10l22 311h107v-311l76 2v-123h-76v-168h-133l4 168h-365z" />
<glyph unicode="&#xbd;" horiz-adv-x="1861" d="M80 1247l250 191l147 -11v-698h180v-119h-526v119h207v574h-8l-176 -150zM516 -18l381 800l320 719h151l-362 -782l-336 -737h-154zM1206 737q36 30 112.5 61t149.5 31q111 0 178.5 -54.5t67.5 -149.5q0 -110 -131 -283q-25 -34 -71 -89t-80 -93l-33 -39v-8l330 8v-121 h-512v104q128 140 204 234q55 69 81 103.5t53.5 88.5t27.5 93q0 84 -86 84q-111 0 -237 -76z" />
<glyph unicode="&#xbe;" horiz-adv-x="1755" d="M86 664l39 106q13 -6 35 -15.5t80.5 -25.5t105.5 -16q67 0 94 31t27 102q0 76 -37.5 107.5t-114.5 31.5h-102v111q141 11 175 23q46 17 54 64q2 14 2 31q0 56 -24 80q-34 27 -123 27q-58 0 -156 -12l-10 112q102 19 188 19q123 0 192 -47.5t69 -161.5q0 -42 -11.5 -75.5 t-27.5 -52t-36.5 -31t-34 -16.5t-24.5 -5v-9q27 -4 50.5 -13.5t50 -30.5t42 -61.5t15.5 -96.5q0 -112 -61 -179t-197 -67q-64 0 -129 17.5t-98 34.5zM467 -18l381 800l319 719h152l-363 -782l-335 -737h-154zM1069 168v106l195 557l125 -14l-193 -530v-8l238 10l22 311h107 v-311l75 2v-123h-75v-168h-133l4 168h-365z" />
<glyph unicode="&#xbf;" horiz-adv-x="948" d="M61 117q0 -164 114 -269.5t294 -105.5q61 0 126 13.5t114.5 32t90.5 37.5t63 33l22 13q-4 9 -10.5 23.5t-20.5 45.5t-23.5 51t-9.5 19q-8 -4 -21.5 -11.5t-56 -26.5t-85.5 -33.5t-104 -26.5t-116 -12q-77 0 -116 26q-80 55 -80 176q0 67 22.5 119.5t57.5 88t77.5 68 t85 68t77.5 78t57 108.5t22 150v19h-145q0 -62 -24 -112.5t-62.5 -87t-84.5 -71.5t-92.5 -73t-85 -82.5t-62.5 -110.5t-24 -147zM457 1010v182h221v-182h-221z" />
<glyph unicode="&#xc0;" horiz-adv-x="1054" d="M10 0l402 1423h215l401 -1423h-184l-99 381h-452l-100 -381h-183zM250 1632l53 146l463 -166l-41 -105zM324 524h389l-189 760h-12z" />
<glyph unicode="&#xc1;" horiz-adv-x="1054" d="M10 0l402 1423h215l401 -1423h-184l-99 381h-452l-100 -381h-183zM287 1612l461 168l57 -150l-481 -123zM324 524h389l-189 760h-12z" />
<glyph unicode="&#xc2;" horiz-adv-x="1054" d="M10 0l402 1423h215l401 -1423h-184l-99 381h-452l-100 -381h-183zM217 1579l248 195h104l248 -195l-57 -78l-236 125h-14l-236 -125zM324 524h389l-189 760h-12z" />
<glyph unicode="&#xc3;" horiz-adv-x="1054" d="M10 0l402 1423h215l401 -1423h-184l-99 381h-452l-100 -381h-183zM170 1548q0 112 37.5 159.5t111.5 47.5q52 0 218 -47t180 -47q12 0 25.5 22t20.5 44l7 22l109 -14q0 -111 -37 -159t-111 -48q-51 0 -218.5 49t-180.5 49q-12 0 -26 -22.5t-22 -45.5l-8 -22zM324 524h389 l-189 760h-12z" />
<glyph unicode="&#xc4;" horiz-adv-x="1054" d="M10 0l402 1423h215l401 -1423h-184l-99 381h-452l-100 -381h-183zM229 1561v168h203v-168h-203zM324 524h389l-189 760h-12zM612 1561v168h201v-168h-201z" />
<glyph unicode="&#xc5;" horiz-adv-x="1054" d="M10 0l402 1423h215l401 -1423h-184l-99 381h-452l-100 -381h-183zM324 524h389l-189 760h-12zM346 1647q0 90 49.5 130t122.5 40t122.5 -40t49.5 -130q0 -89 -49.5 -128.5t-122.5 -39.5t-122.5 39.5t-49.5 128.5zM444 1647q0 -44 17.5 -59t56.5 -15t54.5 15t15.5 59 q0 45 -15.5 60t-54.5 15q-40 0 -57 -15t-17 -60z" />
<glyph unicode="&#xc6;" horiz-adv-x="1566" d="M-6 0l612 1423h821v-155l-528 6l-8 -477h487v-146h-487l8 -501l528 4v-154h-698v375h-393l-160 -375h-182zM379 524h350v760h-37z" />
<glyph unicode="&#xc7;" horiz-adv-x="1193" d="M147 696q0 182 26.5 317t71.5 218t114 133t143.5 68t171.5 18q72 0 182.5 -10.5t161.5 -22.5l-21 -147q-44 6 -155 15t-154 9q-108 0 -166 -11.5t-84 -43.5q-104 -129 -104 -549q0 -201 38.5 -337t86.5 -183q51 -51 162 -51q57 0 119 11.5t109.5 28.5t87 34t60.5 29 l21 11l59 -135q-13 -9 -37 -23.5t-101.5 -44.5t-158.5 -44q27 -92 27 -148q0 -94 -62.5 -149.5t-160.5 -55.5q-33 0 -70.5 4.5t-58.5 9.5l-21 5v127q90 -10 131 -10q65 0 88 11.5t23 51.5q0 70 -17 141h-20q-112 0 -200 39.5t-154.5 124t-102 225.5t-35.5 334z" />
<glyph unicode="&#xc8;" horiz-adv-x="1052" d="M215 0v1423h698v-153l-526 6l-10 -479h487v-146h-487l10 -501l526 4v-154h-698zM295 1632l53 146l463 -166l-41 -105z" />
<glyph unicode="&#xc9;" horiz-adv-x="1052" d="M215 0v1423h698v-153l-526 6l-10 -479h487v-146h-487l10 -501l526 4v-154h-698zM367 1612l460 168l58 -150l-482 -123z" />
<glyph unicode="&#xca;" horiz-adv-x="1052" d="M215 0v1423h698v-153l-526 6l-10 -479h487v-146h-487l10 -501l526 4v-154h-698zM274 1579l248 195h105l247 -195l-57 -78l-235 125h-15l-235 -125z" />
<glyph unicode="&#xcb;" horiz-adv-x="1052" d="M215 0v1423h698v-153l-526 6l-10 -479h487v-146h-487l10 -501l526 4v-154h-698zM281 1561v168h202v-168h-202zM664 1561v168h200v-168h-200z" />
<glyph unicode="&#xcc;" d="M14 1628l54 150l438 -162l-41 -109zM215 -2l8 653l-8 772h174l-10 -628l10 -795z" />
<glyph unicode="&#xcd;" d="M109 1616l432 164l57 -154l-453 -119zM215 -2l8 653l-8 772h174l-10 -628l10 -795z" />
<glyph unicode="&#xce;" d="M16 1583l234 191h104l234 -191l-53 -82l-226 125h-14l-225 -125zM215 -2l8 653l-8 772h174l-10 -628l10 -795z" />
<glyph unicode="&#xcf;" d="M35 1561v168h203v-168h-203zM215 -2l8 653l-8 772h174l-10 -628l10 -795zM369 1561v168h200v-168h-200z" />
<glyph unicode="&#xd0;" horiz-adv-x="1316" d="M106 657v144h136v624q268 25 424 25q88 0 160 -20.5t123.5 -55.5t90.5 -88t63.5 -113t39.5 -135t20.5 -148.5t5.5 -160.5q0 -166 -26 -295.5t-72 -215t-113 -141.5t-144.5 -80t-170.5 -24q-43 0 -143 6.5t-181 13.5t-77 7v657h-136zM410 145q133 -20 211 -20 q186 0 243 57q113 113 113 561q0 201 -28.5 338t-80.5 179q-43 40 -198 40q-40 0 -105 -3.5t-110 -6.5l-45 -4v-485h221v-144h-221v-512z" />
<glyph unicode="&#xd1;" horiz-adv-x="1386" d="M215 0h168l-27 1262h9l567 -1262h239v1423h-167l30 -1261h-10l-569 1261h-240v-1423zM352 1548q0 112 38 159.5t112 47.5q52 0 217.5 -47t179.5 -47q12 0 25.5 22t20.5 44l7 22l109 -14q0 -111 -37 -159t-111 -48q-51 0 -218.5 49t-180.5 49q-12 0 -26 -22.5t-22 -45.5 l-7 -22z" />
<glyph unicode="&#xd2;" horiz-adv-x="1343" d="M147 715q0 146 18.5 261.5t54 194.5t82 134.5t107.5 86.5t124 44.5t139 13.5t139 -13.5t124 -44.5t107 -86.5t81.5 -135t54 -194.5t18.5 -261q0 -175 -27.5 -307t-73.5 -214t-115 -132.5t-142.5 -69.5t-165.5 -19t-165.5 19t-142.5 69.5t-115.5 132.5t-74 214t-27.5 307z M332 709q0 -109 7 -192.5t19 -145t34 -104t47 -69.5t63 -41.5t76.5 -20t93.5 -5.5t94 5.5t77 20t63 41.5t47 69.5t34.5 104t19.5 145t7 192.5q0 153 -13 257t-37 169t-68 100t-95 47t-129 12t-129 -12t-94.5 -47t-67 -100t-36.5 -169t-13 -257zM432 1632l53 146l463 -166 l-41 -105z" />
<glyph unicode="&#xd3;" horiz-adv-x="1343" d="M147 715q0 -175 27.5 -307t74 -214t115.5 -132.5t142.5 -69.5t165.5 -19t165.5 19t142.5 69.5t115 132.5t73.5 214t27.5 307q0 146 -18.5 261t-54 194.5t-81.5 135t-107 86.5t-124 44.5t-139 13.5t-139 -13.5t-124 -44.5t-107.5 -86.5t-82 -134.5t-54 -194.5 t-18.5 -261.5zM332 709q0 153 13 257t36.5 169t67 100t94.5 47t129 12t129 -12t95 -47t68 -100t37 -169t13 -257q0 -109 -7 -192.5t-19.5 -145t-34.5 -104t-47 -69.5t-63 -41.5t-77 -20t-94 -5.5t-93.5 5.5t-76.5 20t-63 41.5t-47 69.5t-34 104t-19 145t-7 192.5zM506 1612 l461 168l57 -150l-481 -123z" />
<glyph unicode="&#xd4;" horiz-adv-x="1343" d="M147 715q0 -175 27.5 -307t74 -214t115.5 -132.5t142.5 -69.5t165.5 -19t165.5 19t142.5 69.5t115 132.5t73.5 214t27.5 307q0 146 -18.5 261t-54 194.5t-81.5 135t-107 86.5t-124 44.5t-139 13.5t-139 -13.5t-124 -44.5t-107.5 -86.5t-82 -134.5t-54 -194.5 t-18.5 -261.5zM332 709q0 153 13 257t36.5 169t67 100t94.5 47t129 12t129 -12t95 -47t68 -100t37 -169t13 -257q0 -109 -7 -192.5t-19.5 -145t-34.5 -104t-47 -69.5t-63 -41.5t-77 -20t-94 -5.5t-93.5 5.5t-76.5 20t-63 41.5t-47 69.5t-34 104t-19 145t-7 192.5zM385 1579 l248 195h104l248 -195l-57 -78l-236 125h-14l-236 -125z" />
<glyph unicode="&#xd5;" horiz-adv-x="1343" d="M147 715q0 -175 27.5 -307t74 -214t115.5 -132.5t142.5 -69.5t165.5 -19t165.5 19t142.5 69.5t115 132.5t73.5 214t27.5 307q0 146 -18.5 261t-54 194.5t-81.5 135t-107 86.5t-124 44.5t-139 13.5t-139 -13.5t-124 -44.5t-107.5 -86.5t-82 -134.5t-54 -194.5 t-18.5 -261.5zM322 1548q0 112 37.5 159.5t111.5 47.5q52 0 217.5 -47t179.5 -47q12 0 25.5 22t20.5 44l8 22l108 -14q0 -112 -36.5 -159.5t-110.5 -47.5q-51 0 -219 49t-181 49q-12 0 -25.5 -22.5t-21.5 -45.5l-8 -22zM332 709q0 153 13 257t36.5 169t67 100t94.5 47 t129 12t129 -12t95 -47t68 -100t37 -169t13 -257q0 -109 -7 -192.5t-19.5 -145t-34.5 -104t-47 -69.5t-63 -41.5t-77 -20t-94 -5.5t-93.5 5.5t-76.5 20t-63 41.5t-47 69.5t-34 104t-19 145t-7 192.5z" />
<glyph unicode="&#xd6;" horiz-adv-x="1343" d="M147 715q0 146 18.5 261.5t54 194.5t82 134.5t107.5 86.5t124 44.5t139 13.5t139 -13.5t124 -44.5t107 -86.5t81.5 -135t54 -194.5t18.5 -261q0 -175 -27.5 -307t-73.5 -214t-115 -132.5t-142.5 -69.5t-165.5 -19t-165.5 19t-142.5 69.5t-115.5 132.5t-74 214t-27.5 307z M332 709q0 -109 7 -192.5t19 -145t34 -104t47 -69.5t63 -41.5t76.5 -20t93.5 -5.5t94 5.5t77 20t63 41.5t47 69.5t34.5 104t19.5 145t7 192.5q0 153 -13 257t-37 169t-68 100t-95 47t-129 12t-129 -12t-94.5 -47t-67 -100t-36.5 -169t-13 -257zM389 1561v168h203v-168h-203z M772 1561v168h201v-168h-201z" />
<glyph unicode="&#xd7;" horiz-adv-x="1177" d="M111 238l372 372l-368 369l102 104l369 -370l375 374l106 -108l-373 -373l369 -368l-102 -105l-371 369l-373 -373z" />
<glyph unicode="&#xd8;" horiz-adv-x="1343" d="M147 715q0 146 18.5 261.5t54 194.5t82 134.5t107.5 86.5t124 44.5t139 13.5q149 0 252 -53l43 96h161l-88 -186q156 -177 156 -592q0 -175 -27.5 -307t-73.5 -214t-115 -132.5t-142.5 -69.5t-165.5 -19q-134 0 -234 43l-43 -96h-164l88 180q-172 172 -172 615zM332 709 q0 -328 63 -451l232 477l235 525q-64 34 -190 34q-78 0 -129 -12t-94.5 -47t-67 -100t-36.5 -169t-13 -257zM502 156q65 -25 170 -25q55 0 94 5.5t77 20t63 41.5t47 69.5t34.5 104t19.5 145t7 192.5q0 306 -53 432l-224 -469z" />
<glyph unicode="&#xd9;" horiz-adv-x="1353" d="M215 618v805h172v-749q0 -127 4.5 -210t18 -147t31.5 -98.5t53.5 -56t76 -27.5t105.5 -6q65 1 106 7t76.5 28t54 56t32 98t18 147t4.5 209v749h172v-786q0 -155 -20 -269.5t-57 -190t-95 -121t-128 -64.5t-163 -19q-116 0 -197.5 30.5t-143 102.5t-91 199t-29.5 313z M348 1632l53 146l463 -166l-41 -105z" />
<glyph unicode="&#xda;" horiz-adv-x="1353" d="M215 618q0 -186 29.5 -313t91 -199t143 -102.5t197.5 -30.5q93 0 163 19t128 64.5t95 121t57 190t20 269.5v786h-172v-749q0 -126 -4.5 -209t-18 -147t-32 -98t-54 -56t-76.5 -28t-106 -7q-65 0 -105.5 6t-76 27.5t-53.5 56t-31.5 98.5t-18 147t-4.5 210v749h-172v-805z M498 1612l460 168l58 -150l-481 -123z" />
<glyph unicode="&#xdb;" horiz-adv-x="1353" d="M215 618q0 -186 29.5 -313t91 -199t143 -102.5t197.5 -30.5q93 0 163 19t128 64.5t95 121t57 190t20 269.5v786h-172v-749q0 -126 -4.5 -209t-18 -147t-32 -98t-54 -56t-76.5 -28t-106 -7q-65 0 -105.5 6t-76 27.5t-53.5 56t-31.5 98.5t-18 147t-4.5 210v749h-172v-805z M379 1579l248 195h104l248 -195l-57 -78l-236 125h-14l-236 -125z" />
<glyph unicode="&#xdc;" horiz-adv-x="1353" d="M215 618v805h172v-749q0 -127 4.5 -210t18 -147t31.5 -98.5t53.5 -56t76 -27.5t105.5 -6q65 1 106 7t76.5 28t54 56t32 98t18 147t4.5 209v749h172v-786q0 -155 -20 -269.5t-57 -190t-95 -121t-128 -64.5t-163 -19q-116 0 -197.5 30.5t-143 102.5t-91 199t-29.5 313z M385 1554v168h203v-168h-203zM768 1554v168h201v-168h-201z" />
<glyph unicode="&#xdd;" horiz-adv-x="1046" d="M10 1423h193l305 -749h8l307 749h193l-420 -895l4 -528h-176l4 530zM342 1612l461 168l57 -150l-481 -123z" />
<glyph unicode="&#xde;" horiz-adv-x="1218" d="M211 0l6 666l-6 757h172l-2 -186q215 14 309 14q193 0 296.5 -120t103.5 -355q0 -115 -25.5 -203.5t-67.5 -142.5t-102 -88.5t-121.5 -47.5t-132.5 -13q-41 0 -106 3t-109 6l-45 3l2 -293h-172zM379 451q152 -25 285 -25q138 0 180 39q35 34 49 114.5t14 217.5 q0 248 -73 290q-24 14 -74 23.5t-103 9.5q-153 0 -278 -22v-647z" />
<glyph unicode="&#xdf;" horiz-adv-x="1259" d="M215 0v1004q0 113 31.5 199.5t87.5 139.5t127.5 80t156.5 27q109 0 199 -41t146.5 -125.5t56.5 -198.5q0 -75 -24.5 -138.5t-59 -99.5t-66 -55.5t-49.5 -19.5q34 -4 68 -15.5t74.5 -39t70.5 -66.5t50 -104.5t20 -147.5q0 -195 -106.5 -310.5t-301.5 -115.5q-68 0 -170 21 l21 129q66 -14 139 -14q126 0 182 63t56 219q0 152 -62 227.5t-225 75.5h-53v121q137 14 198.5 73.5t61.5 186.5q0 74 -19 125t-53.5 76t-71 35t-82.5 10q-129 0 -180 -74.5t-51 -240.5v-1006h-172z" />
<glyph unicode="&#xe0;" horiz-adv-x="1163" d="M111 352q0 107 33 182t96.5 118t147 62t194.5 19h217q0 124 -7.5 192.5t-31.5 100.5q-33 45 -131 45q-94 0 -202 -25.5t-169 -51.5l-61 -25l-60 133q9 5 26 13t69 28t103.5 35.5t123 28t135.5 12.5q375 0 375 -435v-784h-111l-24 125h-13q-8 -6 -21.5 -16.5t-57 -36.5 t-87 -46t-105.5 -36.5t-118 -16.5q-146 0 -233.5 99.5t-87.5 279.5zM289 352q0 -120 40 -173.5t132 -53.5q69 0 153.5 27.5t134.5 55.5l50 28v339q-88 15 -219 15q-191 0 -236 -39q-55 -43 -55 -199zM309 1505l62 137l454 -194l-41 -102z" />
<glyph unicode="&#xe1;" horiz-adv-x="1163" d="M111 352q0 -180 87.5 -279.5t233.5 -99.5q56 0 117 15.5t107.5 38t85 45t58.5 38.5l21 15h13l24 -125h111v784q0 435 -375 435q-101 0 -215 -29.5t-178 -58.5l-64 -29l60 -133q9 4 25 11t65.5 24.5t98.5 31t116.5 24.5t126.5 11q98 0 131 -45q24 -32 31.5 -100.5 t7.5 -192.5h-217q-111 0 -194.5 -19t-147 -62t-96.5 -118t-33 -182zM289 352q0 156 55 199q45 39 236 39q58 0 113 -4t81 -8l25 -3v-339q-7 -5 -20.5 -12t-53 -26.5t-78.5 -34t-90.5 -26.5t-95.5 -12q-92 0 -132 53.5t-40 173.5zM305 1448l455 194l63 -137l-477 -159z" />
<glyph unicode="&#xe2;" horiz-adv-x="1163" d="M111 352q0 -180 87.5 -279.5t233.5 -99.5q56 0 117 15.5t107.5 38t85 45t58.5 38.5l21 15h13l24 -125h111v784q0 435 -375 435q-101 0 -215 -29.5t-178 -58.5l-64 -29l60 -133q9 4 25 11t65.5 24.5t98.5 31t116.5 24.5t126.5 11q98 0 131 -45q24 -32 31.5 -100.5 t7.5 -192.5h-217q-111 0 -194.5 -19t-147 -62t-96.5 -118t-33 -182zM256 1419l248 223h104l248 -223l-59 -69l-234 145h-14l-234 -145zM289 352q0 156 55 199q45 39 236 39q58 0 113 -4t81 -8l25 -3v-339q-7 -5 -20.5 -12t-53 -26.5t-78.5 -34t-90.5 -26.5t-95.5 -12 q-92 0 -132 53.5t-40 173.5z" />
<glyph unicode="&#xe3;" horiz-adv-x="1163" d="M111 352q0 -180 87.5 -279.5t233.5 -99.5q56 0 117 15.5t107.5 38t85 45t58.5 38.5l21 15h13l24 -125h111v784q0 435 -375 435q-101 0 -215 -29.5t-178 -58.5l-64 -29l60 -133q9 4 25 11t65.5 24.5t98.5 31t116.5 24.5t126.5 11q98 0 131 -45q24 -32 31.5 -100.5 t7.5 -192.5h-217q-111 0 -194.5 -19t-147 -62t-96.5 -118t-33 -182zM174 1382q0 112 38 159.5t112 47.5q52 0 217.5 -49t179.5 -49q12 0 25.5 23t20.5 46l7 23l109 -14q0 -111 -37 -159t-111 -48q-51 0 -218.5 51t-180.5 51q-12 0 -26 -23.5t-22 -46.5l-7 -24zM289 352 q0 156 55 199q45 39 236 39q58 0 113 -4t81 -8l25 -3v-339q-7 -5 -20.5 -12t-53 -26.5t-78.5 -34t-90.5 -26.5t-95.5 -12q-92 0 -132 53.5t-40 173.5z" />
<glyph unicode="&#xe4;" horiz-adv-x="1163" d="M111 352q0 107 33 182t96.5 118t147 62t194.5 19h217q0 124 -7.5 192.5t-31.5 100.5q-33 45 -131 45q-94 0 -202 -25.5t-169 -51.5l-61 -25l-60 133q9 5 26 13t69 28t103.5 35.5t123 28t135.5 12.5q375 0 375 -435v-784h-111l-24 125h-13q-8 -6 -21.5 -16.5t-57 -36.5 t-87 -46t-105.5 -36.5t-118 -16.5q-146 0 -233.5 99.5t-87.5 279.5zM258 1401v168h203v-168h-203zM289 352q0 -120 40 -173.5t132 -53.5q69 0 153.5 27.5t134.5 55.5l50 28v339q-88 15 -219 15q-191 0 -236 -39q-55 -43 -55 -199zM641 1401v168h201v-168h-201z" />
<glyph unicode="&#xe5;" horiz-adv-x="1163" d="M111 352q0 107 33 182t96.5 118t147 62t194.5 19h217q0 124 -7.5 192.5t-31.5 100.5q-33 45 -131 45q-94 0 -202 -25.5t-169 -51.5l-61 -25l-60 133q9 5 26 13t69 28t103.5 35.5t123 28t135.5 12.5q375 0 375 -435v-784h-111l-24 125h-13q-8 -6 -21.5 -16.5t-57 -36.5 t-87 -46t-105.5 -36.5t-118 -16.5q-146 0 -233.5 99.5t-87.5 279.5zM289 352q0 -120 40 -173.5t132 -53.5q69 0 153.5 27.5t134.5 55.5l50 28v339q-88 15 -219 15q-191 0 -236 -39q-55 -43 -55 -199zM385 1495q0 92 49.5 132t122.5 40t122.5 -40t49.5 -132q0 -90 -49.5 -130 t-122.5 -40t-122.5 40t-49.5 130zM483 1495q0 -45 17.5 -60.5t56.5 -15.5t54.5 15.5t15.5 60.5q0 47 -15.5 62.5t-54.5 15.5q-40 0 -57 -15.5t-17 -62.5z" />
<glyph unicode="&#xe6;" horiz-adv-x="1808" d="M111 350q0 350 471 350h217q0 147 -7 216.5t-32 105.5q-20 29 -52 39t-81 10q-93 0 -200.5 -25.5t-168.5 -51.5l-61 -25l-60 133q10 5 27.5 13t70 28t102.5 35.5t115.5 28t118.5 12.5q247 0 336 -156h8q114 156 349 156q204 0 307.5 -126.5t103.5 -418.5v-121h-702v-74 q9 -224 86 -307q29 -26 69 -37.5t113 -11.5q68 0 157.5 19.5t145.5 39.5l55 19l43 -140q-19 -10 -52.5 -24.5t-133.5 -39t-196 -24.5q-256 0 -365 166h-10q-9 -7 -26 -18t-68 -39.5t-101.5 -50.5t-120 -40t-129.5 -18q-154 0 -241.5 94.5t-87.5 282.5zM289 332 q0 -112 41 -159.5t137 -47.5q64 0 147 25.5t134 51.5l51 25v316q-85 14 -228 14q-182 0 -227 -39q-55 -37 -55 -186zM971 688l530 10q0 242 -47 318q-35 55 -184 55q-95 0 -148 -19.5t-84 -58.5q-67 -81 -67 -305z" />
<glyph unicode="&#xe7;" horiz-adv-x="1060" d="M143 600q0 142 26.5 251t71.5 178t111.5 112t140.5 60.5t164 17.5q151 0 291 -33l-20 -144q-7 1 -49 6.5t-74.5 9.5t-83.5 7.5t-96 3.5q-156 0 -209 -53q-41 -44 -67.5 -160t-26.5 -268q0 -195 40 -297t91 -137q47 -33 122 -33q71 0 158.5 23.5t138.5 47.5l52 23l53 -133 q-10 -7 -28 -18.5t-76.5 -36t-120.5 -37.5q28 -82 28 -152q0 -94 -62.5 -149.5t-160.5 -55.5q-33 0 -70 4.5t-58 9.5l-21 5v127q90 -10 131 -10q65 0 87.5 11.5t22.5 51.5q0 74 -16 141h-19q-221 0 -346 152.5t-125 474.5z" />
<glyph unicode="&#xe8;" horiz-adv-x="1165" d="M143 598q0 621 471 621q103 0 178 -29.5t130 -95t82.5 -174.5t27.5 -263v-127h-708q0 -276 88 -358q55 -49 170 -49q77 0 170.5 19.5t148.5 39.5l55 19l43 -140q-19 -10 -53.5 -24.5t-134.5 -39t-193 -24.5q-475 0 -475 625zM322 1505l61 137l455 -194l-41 -102zM324 666 l534 10q0 129 -10 209.5t-37 124.5q-19 29 -56.5 45t-127.5 16q-176 0 -238 -82q-65 -85 -65 -323z" />
<glyph unicode="&#xe9;" horiz-adv-x="1165" d="M143 598q0 -625 475 -625q93 0 188 22t144 44l49 22l-43 140q-22 -9 -60 -22t-137.5 -34.5t-176.5 -21.5q-115 0 -170 49q-88 82 -88 358h708v127q0 154 -27.5 263t-82.5 174.5t-130 95t-178 29.5q-471 0 -471 -621zM324 666q0 238 65 323q62 82 238 82q90 0 127.5 -16 t56.5 -45q27 -44 37 -124.5t10 -209.5zM442 1448l455 194l64 -137l-478 -159z" />
<glyph unicode="&#xea;" horiz-adv-x="1165" d="M143 598q0 -625 475 -625q93 0 188 22t144 44l49 22l-43 140q-22 -9 -60 -22t-137.5 -34.5t-176.5 -21.5q-115 0 -170 49q-88 82 -88 358h708v127q0 154 -27.5 263t-82.5 174.5t-130 95t-178 29.5q-471 0 -471 -621zM283 1419l247 223h105l248 -223l-60 -69l-233 145h-15 l-233 -145zM324 666q0 238 65 323q62 82 238 82q90 0 127.5 -16t56.5 -45q27 -44 37 -124.5t10 -209.5z" />
<glyph unicode="&#xeb;" horiz-adv-x="1165" d="M143 598q0 621 471 621q103 0 178 -29.5t130 -95t82.5 -174.5t27.5 -263v-127h-708q0 -276 88 -358q55 -49 170 -49q77 0 170.5 19.5t148.5 39.5l55 19l43 -140q-19 -10 -53.5 -24.5t-134.5 -39t-193 -24.5q-475 0 -475 625zM297 1401v168h203v-168h-203zM324 666l534 10 q0 129 -10 209.5t-37 124.5q-19 29 -56.5 45t-127.5 16q-176 0 -238 -82q-65 -85 -65 -323zM680 1401v168h201v-168h-201z" />
<glyph unicode="&#xec;" d="M-63 1503l57 139l446 -194l-41 -102zM217 0v1192h170v-1192h-170z" />
<glyph unicode="&#xed;" d="M115 1448l448 194l55 -139l-462 -157zM217 0h170v1192h-170v-1192z" />
<glyph unicode="&#xee;" d="M14 1419l234 223h108l234 -223l-66 -67l-213 143h-16l-213 -143zM217 0h170v1192h-170v-1192z" />
<glyph unicode="&#xef;" d="M14 1401v168h203v-168h-203zM217 0v1192h170v-1192h-170zM389 1401v168h201v-168h-201z" />
<glyph unicode="&#xf0;" horiz-adv-x="1179" d="M143 565q0 500 443 500q155 0 264 -84l10 6q-48 150 -186 277l-195 -125l-16 143l110 66q-44 33 -143 98l76 123q115 -61 201 -127l221 145l14 -145l-141 -86q235 -240 235 -770q0 -147 -22.5 -256.5t-73.5 -191.5t-138.5 -123.5t-211.5 -41.5q-125 0 -213 40.5 t-138.5 119.5t-73 184.5t-22.5 247.5zM315 563q0 -115 9.5 -192t27.5 -128t52.5 -77.5t77 -36.5t108.5 -10q55 0 92.5 6.5t70 24.5t51.5 48.5t33 81t19.5 119t5.5 164.5q0 110 -14 179t-48.5 108.5t-83 53.5t-126.5 14q-105 0 -161.5 -27.5t-85 -104.5t-28.5 -223z" />
<glyph unicode="&#xf1;" horiz-adv-x="1230" d="M207 0h170v948q212 109 360 109q83 0 111 -43q20 -30 25.5 -88t5.5 -193v-733h172v793q0 98 -12 170t-41 132.5t-84.5 92t-137.5 31.5q-183 0 -426 -144h-10l-18 117h-115v-1192zM266 1382q0 112 38 159.5t112 47.5q52 0 217.5 -49t179.5 -49q12 0 25.5 23t20.5 46l7 23 l109 -14q0 -111 -37 -159t-111 -48q-51 0 -218.5 51t-180.5 51q-12 0 -26 -23.5t-22 -46.5l-7 -24z" />
<glyph unicode="&#xf2;" horiz-adv-x="1179" d="M143 596q0 149 22.5 259.5t73 194.5t138.5 126.5t213 42.5q124 0 211.5 -42.5t138.5 -126t73.5 -194.5t22.5 -260q0 -150 -22.5 -261t-73.5 -194t-138.5 -125.5t-211.5 -42.5q-125 0 -213 42.5t-138.5 126t-73 194t-22.5 260.5zM309 1505l62 137l454 -194l-41 -102z M315 596q0 -154 13 -246t47.5 -144.5t83 -69.5t131.5 -17t131 17t82 69.5t46.5 144.5t12.5 246q0 103 -5.5 176.5t-19.5 127t-33 86t-51.5 52t-70 26.5t-92.5 7q-66 0 -108.5 -11t-77 -39t-52.5 -82.5t-27.5 -137t-9.5 -205.5z" />
<glyph unicode="&#xf3;" horiz-adv-x="1179" d="M143 596q0 -150 22.5 -260.5t73 -194t138.5 -126t213 -42.5q124 0 211.5 42.5t138.5 125.5t73.5 194t22.5 261q0 149 -22.5 260t-73.5 194.5t-138.5 126t-211.5 42.5q-125 0 -213 -42.5t-138.5 -126.5t-73 -194.5t-22.5 -259.5zM315 596q0 123 9.5 205.5t27.5 137 t52.5 82.5t77 39t108.5 11q55 0 92.5 -7t70 -26.5t51.5 -52t33 -86t19.5 -127t5.5 -176.5q0 -154 -12.5 -246t-46.5 -144.5t-82 -69.5t-131 -17t-131.5 17t-83 69.5t-47.5 144.5t-13 246zM414 1448l454 194l64 -137l-477 -159z" />
<glyph unicode="&#xf4;" horiz-adv-x="1179" d="M143 596q0 -150 22.5 -260.5t73 -194t138.5 -126t213 -42.5q124 0 211.5 42.5t138.5 125.5t73.5 194t22.5 261q0 149 -22.5 260t-73.5 194.5t-138.5 126t-211.5 42.5q-125 0 -213 -42.5t-138.5 -126.5t-73 -194.5t-22.5 -259.5zM289 1419l248 223h104l248 -223l-60 -69 l-233 145h-14l-234 -145zM315 596q0 123 9.5 205.5t27.5 137t52.5 82.5t77 39t108.5 11q55 0 92.5 -7t70 -26.5t51.5 -52t33 -86t19.5 -127t5.5 -176.5q0 -154 -12.5 -246t-46.5 -144.5t-82 -69.5t-131 -17t-131.5 17t-83 69.5t-47.5 144.5t-13 246z" />
<glyph unicode="&#xf5;" horiz-adv-x="1179" d="M143 596q0 -150 22.5 -260.5t73 -194t138.5 -126t213 -42.5q124 0 211.5 42.5t138.5 125.5t73.5 194t22.5 261q0 149 -22.5 260t-73.5 194.5t-138.5 126t-211.5 42.5q-125 0 -213 -42.5t-138.5 -126.5t-73 -194.5t-22.5 -259.5zM236 1382q0 112 37.5 159.5t111.5 47.5 q52 0 217.5 -49t179.5 -49q12 0 25.5 23t20.5 46l8 23l108 -14q0 -112 -36.5 -159.5t-110.5 -47.5q-51 0 -219 51t-181 51q-12 0 -25.5 -23.5t-21.5 -46.5l-8 -24zM315 596q0 123 9.5 205.5t27.5 137t52.5 82.5t77 39t108.5 11q55 0 92.5 -7t70 -26.5t51.5 -52t33 -86 t19.5 -127t5.5 -176.5q0 -154 -12.5 -246t-46.5 -144.5t-82 -69.5t-131 -17t-131.5 17t-83 69.5t-47.5 144.5t-13 246z" />
<glyph unicode="&#xf6;" horiz-adv-x="1179" d="M143 596q0 149 22.5 259.5t73 194.5t138.5 126.5t213 42.5q124 0 211.5 -42.5t138.5 -126t73.5 -194.5t22.5 -260q0 -150 -22.5 -261t-73.5 -194t-138.5 -125.5t-211.5 -42.5q-125 0 -213 42.5t-138.5 126t-73 194t-22.5 260.5zM299 1401v168h203v-168h-203zM315 596 q0 -154 13 -246t47.5 -144.5t83 -69.5t131.5 -17t131 17t82 69.5t46.5 144.5t12.5 246q0 103 -5.5 176.5t-19.5 127t-33 86t-51.5 52t-70 26.5t-92.5 7q-66 0 -108.5 -11t-77 -39t-52.5 -82.5t-27.5 -137t-9.5 -205.5zM682 1401v168h201v-168h-201z" />
<glyph unicode="&#xf7;" horiz-adv-x="1265" d="M106 526v146h1055v-146h-1055zM524 102v185h221v-185h-221zM524 911v185h221v-185h-221z" />
<glyph unicode="&#xf8;" horiz-adv-x="1185" d="M145 596q0 149 23 260t74 194.5t139 126t213 42.5q91 0 164 -25l41 90h155l-75 -158q161 -143 161 -530q0 -150 -22.5 -261t-73.5 -194t-138.5 -125.5t-211.5 -42.5q-140 0 -234 54l-47 -105h-155l96 201q-109 148 -109 473zM319 596q0 -194 23 -295l172 358l182 402 q-36 10 -102 10q-67 0 -109.5 -11t-77 -39t-52.5 -82.5t-27 -136.5t-9 -206zM422 158q52 -39 172 -39q83 0 131 17t82 69.5t46.5 144.5t12.5 246q0 290 -57 387l-184 -387z" />
<glyph unicode="&#xf9;" horiz-adv-x="1228" d="M180 399v793h170v-733q0 -236 29 -285q25 -43 119 -43q57 0 128 20t109.5 36.5t116.5 52.5v952h170v-1192h-115l-20 115h-10q-2 -1 -63 -34t-100 -51t-107.5 -37.5t-127.5 -19.5q-65 0 -117 22t-94 69.5t-65 132.5t-23 202zM293 1505l61 137l455 -194l-41 -102z" />
<glyph unicode="&#xfa;" horiz-adv-x="1228" d="M180 399q0 -117 23 -202t65 -132.5t94 -69.5t117 -22q59 0 127.5 19.5t107.5 37.5t100 51t63 34h10l20 -115h115v1192h-170v-952q-78 -36 -116.5 -52.5t-109.5 -36.5t-128 -20q-94 0 -119 43q-29 49 -29 285v733h-170v-793zM465 1448l455 194l63 -137l-477 -159z" />
<glyph unicode="&#xfb;" horiz-adv-x="1228" d="M180 399q0 -117 23 -202t65 -132.5t94 -69.5t117 -22q59 0 127.5 19.5t107.5 37.5t100 51t63 34h10l20 -115h115v1192h-170v-952q-78 -36 -116.5 -52.5t-109.5 -36.5t-128 -20q-94 0 -119 43q-29 49 -29 285v733h-170v-793zM307 1419l248 223h104l248 -223l-59 -69 l-234 145h-14l-233 -145z" />
<glyph unicode="&#xfc;" horiz-adv-x="1228" d="M180 399v793h170v-733q0 -236 29 -285q25 -43 119 -43q57 0 128 20t109.5 36.5t116.5 52.5v952h170v-1192h-115l-20 115h-10q-2 -1 -63 -34t-100 -51t-107.5 -37.5t-127.5 -19.5q-65 0 -117 22t-94 69.5t-65 132.5t-23 202zM307 1401v168h203v-168h-203zM690 1401v168 h201v-168h-201z" />
<glyph unicode="&#xfd;" horiz-adv-x="980" d="M6 1192h201l280 -875h11l278 875h185l-414 -1116l-111 -416h-180l162 457zM322 1448l454 194l64 -137l-478 -159z" />
<glyph unicode="&#xfe;" horiz-adv-x="1210" d="M215 -340v1882h170v-368q188 45 313 45q184 0 276.5 -148.5t92.5 -470.5q0 -627 -420 -627q-82 0 -262 33v-346h-170zM385 158q135 -35 260 -35q65 0 96.5 7t53.5 26q36 34 65 145.5t29 308.5q0 206 -16.5 302t-49.5 122q-45 33 -143 33q-64 0 -137.5 -13.5t-115.5 -26.5 l-42 -13v-856z" />
<glyph unicode="&#xff;" horiz-adv-x="980" d="M6 1192h201l280 -875h11l278 875h185l-414 -1116l-111 -416h-180l162 457zM199 1401v168h202v-168h-202zM582 1401v168h200v-168h-200z" />
<glyph unicode="&#x152;" horiz-adv-x="1861" d="M147 715q0 146 18.5 261.5t54 194.5t82 134.5t107.5 86.5t124 44.5t139 13.5q218 0 342 -135h8v108h700v-155l-528 6l-10 -477h489v-146h-489l10 -501l528 4v-154h-700v111h-8q-121 -138 -342 -138q-92 0 -165.5 19t-142.5 69.5t-115.5 132.5t-74 214t-27.5 307zM332 709 q0 -109 7 -192.5t19 -145t34 -104t47 -69.5t63 -41.5t76.5 -20t93.5 -5.5t94 5.5t77 20t63 41.5t47 69.5t34.5 104t19.5 145t7 192.5q0 153 -13 257t-37 169t-68 100t-95 47t-129 12t-129 -12t-94.5 -47t-67 -100t-36.5 -169t-13 -257z" />
<glyph unicode="&#x153;" horiz-adv-x="1875" d="M143 596q0 149 22.5 259.5t73 194.5t138.5 126.5t213 42.5q251 0 358 -191h8q113 191 373 191q100 0 174.5 -30t129.5 -95.5t82.5 -174.5t27.5 -262v-127h-705v-69q7 -218 88 -289q29 -26 69.5 -37.5t111.5 -11.5q68 0 158 19.5t146 39.5l56 19l43 -140 q-19 -10 -53 -24.5t-134.5 -39t-195.5 -24.5q-249 0 -364 191h-9q-106 -191 -364 -191q-125 0 -213 42.5t-138.5 126t-73 194t-22.5 260.5zM315 596q0 -154 13 -246t47.5 -144.5t83 -69.5t131.5 -17t131 17t82 69.5t46.5 144.5t12.5 246q0 103 -5.5 176.5t-19.5 127t-33 86 t-51.5 52t-70 26.5t-92.5 7q-66 0 -108.5 -11t-77 -39t-52.5 -82.5t-27.5 -137t-9.5 -205.5zM1038 666l531 10q0 129 -10 209.5t-37 124.5q-33 61 -185 61q-95 0 -147.5 -20t-85.5 -62q-66 -87 -66 -323z" />
<glyph unicode="&#x2c6;" horiz-adv-x="1026" d="M215 1419l248 223h104l248 -223l-59 -69l-234 145h-14l-234 -145z" />
<glyph unicode="&#x2dc;" horiz-adv-x="1097" d="M195 1382q0 112 37.5 159.5t111.5 47.5q52 0 217.5 -49t179.5 -49q12 0 25.5 23t21.5 46l7 23l108 -14q0 -112 -36.5 -159.5t-110.5 -47.5q-51 0 -219 51t-181 51q-12 0 -26 -23.5t-22 -46.5l-7 -24z" />
<glyph unicode="&#x2000;" horiz-adv-x="908" />
<glyph unicode="&#x2001;" horiz-adv-x="1817" />
<glyph unicode="&#x2002;" horiz-adv-x="908" />
<glyph unicode="&#x2003;" horiz-adv-x="1817" />
<glyph unicode="&#x2004;" horiz-adv-x="605" />
<glyph unicode="&#x2005;" horiz-adv-x="454" />
<glyph unicode="&#x2006;" horiz-adv-x="302" />
<glyph unicode="&#x2007;" horiz-adv-x="302" />
<glyph unicode="&#x2008;" horiz-adv-x="227" />
<glyph unicode="&#x2009;" horiz-adv-x="363" />
<glyph unicode="&#x200a;" horiz-adv-x="100" />
<glyph unicode="&#x2010;" horiz-adv-x="657" d="M94 598v145h469v-145h-469z" />
<glyph unicode="&#x2011;" horiz-adv-x="657" d="M94 598v145h469v-145h-469z" />
<glyph unicode="&#x2012;" horiz-adv-x="657" d="M94 598v145h469v-145h-469z" />
<glyph unicode="&#x2013;" horiz-adv-x="1181" d="M102 598v145h977v-145h-977z" />
<glyph unicode="&#x2014;" horiz-adv-x="1640" d="M143 598v145h1354v-145h-1354z" />
<glyph unicode="&#x2018;" horiz-adv-x="462" d="M121 1122q3 244 141 369l80 -66q-34 -43 -48.5 -87.5t-14.5 -112.5q0 -49 3 -109t6 -96l3 -35h-162q-8 68 -8 137z" />
<glyph unicode="&#x2019;" horiz-adv-x="462" d="M121 1020q35 43 50 87.5t15 113.5l-14 239h162q8 -68 8 -137q-3 -246 -141 -369z" />
<glyph unicode="&#x201a;" horiz-adv-x="540" d="M127 -168q34 43 48.5 88t14.5 113q0 49 -3 109t-6 95l-3 35h162q8 -68 8 -137q-2 -243 -141 -368z" />
<glyph unicode="&#x201c;" horiz-adv-x="749" d="M121 1122q3 244 141 369l80 -66q-34 -43 -48.5 -87.5t-14.5 -112.5q0 -49 3 -109t6 -96l3 -35h-162q-8 68 -8 137zM408 1122q3 244 141 369l80 -66q-34 -43 -49 -87.5t-15 -112.5q0 -49 3.5 -109t6.5 -96l3 -35h-162q-8 68 -8 137z" />
<glyph unicode="&#x201d;" horiz-adv-x="749" d="M121 1020q34 43 48.5 88t14.5 113q0 49 -3 109t-6 95l-3 35h162q8 -68 8 -137q-3 -244 -141 -369zM408 1020q34 43 48.5 88t14.5 113q0 49 -3 109t-6 95l-3 35h162q8 -68 8 -137q-2 -243 -142 -369z" />
<glyph unicode="&#x201e;" horiz-adv-x="827" d="M127 -170q34 43 48.5 88t14.5 113q0 49 -3 109t-6 95l-3 35h162q8 -68 8 -137q-3 -244 -141 -369zM414 -170q34 43 48.5 88t14.5 113q0 49 -3 109t-6 95l-3 35h162q8 -68 8 -137q-3 -244 -141 -369z" />
<glyph unicode="&#x2022;" horiz-adv-x="761" d="M143 905q0 63 20 111t55 74.5t76 39.5t89 13q99 0 167 -58.5t68 -179.5q0 -64 -20 -112.5t-54 -75.5t-74.5 -40t-86.5 -13q-102 0 -171 58.5t-69 182.5z" />
<glyph unicode="&#x202f;" horiz-adv-x="363" />
<glyph unicode="&#x2039;" horiz-adv-x="577" d="M82 676l289 495l127 -77l-250 -410v-14l250 -410l-127 -80z" />
<glyph unicode="&#x203a;" horiz-adv-x="577" d="M80 260l250 410v14l-250 410l127 77l289 -495l-289 -496z" />
<glyph unicode="&#x205f;" horiz-adv-x="454" />
<glyph unicode="&#x20ac;" horiz-adv-x="1216" d="M94 524v135h916v-135h-609q13 -132 46 -223t73 -131q51 -51 160 -51q93 0 192.5 28.5t153.5 56.5l53 29l60 -135q-7 -5 -21 -13.5t-58.5 -30t-92 -38t-118.5 -30t-140 -13.5q-102 0 -182.5 29t-146 92t-107 171.5t-56.5 258.5h-123zM94 776v135h125q14 128 47 224 t78.5 155.5t108.5 96t128.5 50t147.5 13.5q78 0 188 -10.5t160 -22.5l-18 -147q-212 24 -342 24q-168 0 -217 -55q-77 -85 -99 -328h609v-135h-916z" />
<glyph unicode="&#xe000;" horiz-adv-x="1187" d="M0 0v1188h1188v-1188h-1188z" />
</font>
</defs>
</svg>
